<?xml version="1.0" encoding="UTF-8"?>
<svg width="300px" height="300px" viewBox="0 0 300 300" version="1.1" xmlns="http://www.w3.org/2000/svg" xmlns:xlink="http://www.w3.org/1999/xlink">
    <!-- Generator: Sketch 51.2 (57519) - http://www.bohemiancoding.com/sketch -->
    <title>icon</title>
    <desc>Created with Sketch.</desc>
    <defs></defs>
    <g id="icon" stroke="none" stroke-width="1" fill="none" fill-rule="evenodd">
        <g transform="translate(5.000000, 0.000000)" fill="#030104" fill-rule="nonzero" id="Shape">
            <path d="M193.877419,22.8096774 L193.877419,59.816129 C227.574194,77.216129 250.674194,112.335484 250.674194,152.903226 C250.674194,210.774194 203.758065,257.709677 145.887097,257.709677 C87.9967742,257.709677 41.0612903,210.774194 41.0612903,152.903226 C41.0612903,115.703226 60.5322581,83.0806452 89.7290323,64.4903226 L89.7290323,26.0225806 C41.0806452,47.5935484 7.07419355,96.2419355 7.07419355,152.912903 C7.07419355,229.567742 69.2032258,291.706452 145.848387,291.706452 C222.532258,291.706452 284.641935,229.567742 284.641935,152.912903 C284.632258,93.1354839 246.783871,42.3774194 193.877419,22.8096774 Z"></path>
            <path d="M143.177419,170.825806 C158.429032,170.825806 159.977419,161.816129 159.977419,150.735484 L159.977419,20.1290323 C159.977419,9.01935484 158.429032,0 143.177419,0 C127.983871,0 126.416129,9.01935484 126.416129,20.1290323 L126.416129,150.735484 C126.406452,161.825806 127.983871,170.825806 143.177419,170.825806 Z"></path>
        </g>
    </g>
</svg>