<?xml version="1.0" encoding="UTF-8"?>
<svg width="300px" height="300px" viewBox="0 0 300 300" version="1.1" xmlns="http://www.w3.org/2000/svg" xmlns:xlink="http://www.w3.org/1999/xlink">
    <!-- Generator: Sketch 51.2 (57519) - http://www.bohemiancoding.com/sketch -->
    <title>icon</title>
    <desc>Created with Sketch.</desc>
    <defs></defs>
    <g id="icon" stroke="none" stroke-width="1" fill="none" fill-rule="evenodd">
        <g id="search" transform="translate(2.000000, 0.000000)" fill-rule="nonzero">
            <path d="M231.555176,55 C231.555176,60.5224612 236.032715,65 241.555176,65 L291.555176,65 L231.555176,5 L231.555176,55 Z" id="Shape" fill="#C3E8FF"></path>
            <path d="M143.005371,224.750976 C154.453125,217.570801 164.125976,207.895508 171.306152,196.450195 C188.742676,168.71582 189.729004,133.696289 173.884277,105.021973 C158.039551,76.3476562 127.866211,58.5473631 95.1049806,58.549805 C45.4003906,58.549805 5.10498062,98.845215 5.10498062,148.549805 C5.10498062,198.256836 45.4003906,238.549805 95.1049806,238.549805 C112.060547,238.605957 128.679199,233.818359 143.005371,224.750976 Z M61.5551756,210 C27.6440431,191.511231 15.1147462,149.052734 33.5571287,115.114746 C51.9995119,81.1791994 94.4433594,68.59375 128.40332,86.9897462 C162.365722,105.388184 175.007324,147.814941 156.655274,181.799316 C150.229492,193.825684 140.380859,203.674316 128.356934,210.100098 C107.5,221.342774 82.37793,221.306153 61.5551756,210 Z" id="Shape" fill="#C3E8FF"></path>
            <path d="M143.005371,224.750976 L189.956055,271.650391 C197.858887,278.808594 209.987793,278.510742 217.526856,270.97168 C225.065918,263.430176 225.366211,251.301269 218.205566,243.400879 L171.306152,196.450195 C164.125976,207.895508 154.453125,217.570801 143.005371,224.750976 Z" id="Shape" fill="#C3E8FF"></path>
            <g id="Group" fill="#1EA1F2">
                <path d="M296.491699,64.6850587 C296.464844,64.2480469 296.379394,63.8134763 296.235351,63.4008788 C296.181641,63.2397463 296.140137,63.0859375 296.071777,62.9296875 C295.827637,62.3852538 295.488281,61.8896487 295.070801,61.4648438 L235.070801,1.46484375 C234.645996,1.04492188 234.147949,0.70556625 233.601074,0.4638675 C233.452149,0.3955075 233.300781,0.35400375 233.146972,0.300293125 C232.722168,0.15380875 232.282715,0.065918125 231.835937,0.0390625 C231.750488,0.056152375 231.660156,1.11022302e-16 231.555176,1.11022302e-16 L81.5551756,1.11022302e-16 C67.7563475,0.017089875 56.5722656,11.1987306 56.5551756,25 L56.5551756,61.7993163 C22.1826175,76.9580075 2.84217094e-14,110.981445 2.84217094e-14,148.549805 C2.84217094e-14,186.118164 22.1826175,220.141601 56.5551756,235.300293 L56.5551756,275 C56.5722656,288.801269 67.7563475,299.98291 81.5551756,300 L271.555176,300 C285.356445,299.98291 296.540527,288.801269 296.555176,275 L296.555176,65 C296.555176,64.8901369 296.501465,64.7949219 296.491699,64.6850587 Z M279.484863,60 L241.555176,60 C238.793945,60 236.555176,57.7612306 236.555176,55 L236.555176,17.0703125 L279.484863,60 Z M10.1049806,148.549805 C10.0756838,125.996094 19.0209963,104.360351 34.9682619,88.4130863 C50.9155275,72.46582 72.5537112,63.5205075 95.1049806,63.549805 C97.9467775,63.549805 100.766601,63.688965 103.549805,63.9599613 C142.211914,67.7807619 173.327637,97.3950194 179.055176,135.820313 C179.719238,140.031738 180.068359,144.287109 180.100097,148.549805 C180.136719,164.562988 175.610351,180.253906 167.055664,193.789063 C160.270996,204.604493 151.12793,213.745118 140.310059,220.524903 C114.116211,236.975098 81.0546875,237.897949 53.984375,222.932129 C26.9140625,207.96875 10.1098631,179.479981 10.1049806,148.549805 Z M153.176269,223.659668 C153.859863,223.129882 154.536132,222.604981 155.205078,222.060547 C157.67334,220.073242 160.036621,217.961426 162.290039,215.734863 C164.516601,213.481445 166.628418,211.120606 168.615723,208.654785 C169.160156,207.98584 169.685059,207.304687 170.214844,206.621094 C170.820312,205.830078 171.477051,205.080566 172.055664,204.274902 L214.680176,246.950684 C217.502441,249.746094 219.091797,253.554688 219.091797,257.526856 C219.091797,261.501465 217.502441,265.307617 214.680176,268.105469 C208.776856,273.811035 199.414062,273.811035 193.510743,268.105469 L150.830078,225.500488 C151.635742,224.914551 152.390137,224.265137 153.176269,223.659668 Z M271.555176,290 L81.5551756,290 C73.2714844,290 66.5551756,283.283691 66.5551756,275 L66.5551756,239.204101 C66.8652344,239.304199 67.1899413,239.370117 67.5048825,239.465332 C68.3056638,239.709473 69.1162113,239.904785 69.9267575,240.129394 C71.796875,240.629882 73.6816406,241.130371 75.5859375,241.503906 C76.5209963,241.699219 77.456055,241.879883 78.4008788,242.045899 C80.3051756,242.380371 82.2265625,242.644043 84.1552738,242.866211 C85.01709,242.963868 85.8666994,243.085938 86.7309569,243.15918 C89.5019531,243.395996 92.2900388,243.549805 95.1049806,243.549805 C111.633301,243.562012 127.873535,239.23584 142.202149,231.000976 L186.411133,275.166016 C192.614746,281.955566 202.04834,284.792481 210.966797,282.546387 C219.887695,280.302734 226.855469,273.342285 229.106445,264.423828 C231.359863,255.505371 228.532715,246.069336 221.745606,239.86084 L177.556153,195.644531 C185.791016,181.315918 190.119629,165.075684 190.104981,148.549805 C190.104981,145.383301 189.953613,142.241211 189.645996,139.125976 C187.512207,117.280274 177.841797,96.8603513 162.294922,81.3696288 C144.51416,63.4936525 120.319824,53.4765625 95.1049806,53.549805 C92.2900388,53.549805 89.5019531,53.706055 86.7309569,53.94043 C85.8666994,54.0161131 85.0097656,54.1357425 84.1503906,54.23584 C82.2265625,54.4506838 80.3149413,54.7241213 78.4106444,55.0561525 C77.4609375,55.2221681 76.5136719,55.4028319 75.5712888,55.6005863 C73.6914063,55.9912113 71.8261719,56.450195 69.9755863,56.9604494 C69.1455075,57.1850588 68.31543,57.3852538 67.4755863,57.6342775 C67.1655275,57.7294925 66.8505863,57.79541 66.5405275,57.8955075 L66.5405275,25 C66.5405275,16.7163088 73.2568363,10 81.5405275,10 L226.555176,10 L226.555176,55 C226.555176,63.2836913 233.271484,70 241.555176,70 L286.555176,70 L286.555176,275 C286.555176,283.283691 279.841309,290 271.555176,290 Z" id="Shape"></path>
                <path d="M206.555176,35 C206.555176,32.2387694 204.316406,30 201.555176,30 L91.5551756,30 C88.793945,30 86.5551756,32.2387694 86.5551756,35 C86.5551756,37.7612306 88.793945,40 91.5551756,40 L201.555176,40 C204.316406,40 206.555176,37.7612306 206.555176,35 Z" id="Shape"></path>
                <path d="M261.555176,120 L201.555176,120 C198.793945,120 196.555176,122.238769 196.555176,125 C196.555176,127.761231 198.793945,130 201.555176,130 L261.555176,130 C264.316406,130 266.555176,127.761231 266.555176,125 C266.555176,122.238769 264.316406,120 261.555176,120 Z" id="Shape"></path>
                <path d="M261.555176,150 L201.555176,150 C198.793945,150 196.555176,152.238769 196.555176,155 C196.555176,157.761231 198.793945,160 201.555176,160 L261.555176,160 C264.316406,160 266.555176,157.761231 266.555176,155 C266.555176,152.238769 264.316406,150 261.555176,150 Z" id="Shape"></path>
                <path d="M266.555176,185 C266.555176,182.238769 264.316406,180 261.555176,180 L196.555176,180 C193.793945,180 191.555176,182.238769 191.555176,185 C191.555176,187.761231 193.793945,190 196.555176,190 L261.555176,190 C264.316406,190 266.555176,187.761231 266.555176,185 Z" id="Shape"></path>
                <path d="M266.555176,215 C266.555176,212.238769 264.316406,210 261.555176,210 L216.555176,210 C213.793945,210 211.555176,212.238769 211.555176,215 C211.555176,217.761231 213.793945,220 216.555176,220 L261.555176,220 C264.316406,220 266.555176,217.761231 266.555176,215 Z" id="Shape"></path>
                <path d="M206.555176,65 C206.555176,62.2387694 204.316406,60 201.555176,60 L161.555176,60 C158.793945,60 156.555176,62.2387694 156.555176,65 C156.555176,67.7612306 158.793945,70 161.555176,70 L201.555176,70 C204.316406,70 206.555176,67.7612306 206.555176,65 Z" id="Shape"></path>
                <path d="M266.555176,95 C266.555176,92.2387694 264.316406,90 261.555176,90 L186.555176,90 C183.793945,90 181.555176,92.2387694 181.555176,95 C181.555176,97.7612306 183.793945,100 186.555176,100 L261.555176,100 C264.316406,100 266.555176,97.7612306 266.555176,95 Z" id="Shape"></path>
                <path d="M76.5551756,125 L111.555176,125 C114.316406,125 116.555176,122.761231 116.555176,120 C116.555176,117.238769 114.316406,115 111.555176,115 L76.5551756,115 C73.793945,115 71.5551756,117.238769 71.5551756,120 C71.5551756,122.761231 73.793945,125 76.5551756,125 Z" id="Shape"></path>
                <path d="M136.555176,150 C136.555176,147.238769 134.316406,145 131.555176,145 L56.5551756,145 C53.793945,145 51.5551756,147.238769 51.5551756,150 C51.5551756,152.761231 53.793945,155 56.5551756,155 L131.555176,155 C134.316406,155 136.555176,152.761231 136.555176,150 Z" id="Shape"></path>
                <path d="M111.555176,175 L76.5551756,175 C73.793945,175 71.5551756,177.238769 71.5551756,180 C71.5551756,182.761231 73.793945,185 76.5551756,185 L111.555176,185 C114.316406,185 116.555176,182.761231 116.555176,180 C116.555176,177.238769 114.316406,175 111.555176,175 Z" id="Shape"></path>
                <path d="M130.695801,214.499512 C142.890625,208.005371 153.00293,198.195801 159.865723,186.206055 C160.261231,185.515137 160.690918,184.846191 161.062012,184.145508 C161.254883,183.78418 161.40625,183.410644 161.591797,183.049316 C162.351074,181.589356 163.09082,180.129394 163.745118,178.635254 C164.401856,177.141113 164.916993,175.720215 165.45166,174.250488 C165.605469,173.825684 165.800781,173.410644 165.952149,172.980957 C178.666993,136.005859 160.844726,95.4638675 125.004883,79.8364256 C89.1625975,64.2089844 47.3291013,78.7402344 28.8916013,113.220215 C23.0883788,124.082031 20.0659181,136.213379 20.095215,148.530274 C20.0488281,174.956055 33.9282225,199.450684 56.6210938,212.990723 C79.313965,226.533203 107.460938,227.116699 130.695801,214.528809 L130.695801,214.499512 Z M63.9453125,205.59082 C58.5034181,202.624512 53.5180663,198.88916 49.140625,194.499512 C46.1035156,191.464844 43.3715819,188.14209 40.981445,184.575195 C39.799805,182.807618 38.7133788,180.993653 37.7148438,179.130859 C22.6660156,150.715332 30.6396488,115.566406 56.4770506,96.4282225 C82.3144531,77.2900388 118.261719,79.9072263 141.057129,102.585449 C161.245117,122.963868 165.786133,154.125976 152.255859,179.418945 L152.255859,179.460449 C146.293945,190.615234 137.15332,199.748535 125.996094,205.705566 C106.640625,216.220703 83.2690431,216.184082 63.9453125,205.610351 L63.9453125,205.59082 Z" id="Shape"></path>
                <path d="M271.555176,240 C268.793945,240 266.555176,242.238769 266.555176,245 L266.555176,265 C266.555176,267.761231 264.316406,270 261.555176,270 L241.555176,270 C238.793945,270 236.555176,272.238769 236.555176,275 C236.555176,277.761231 238.793945,280 241.555176,280 L261.555176,280 C269.841309,280 276.555176,273.283691 276.555176,265 L276.555176,245 C276.555176,242.238769 274.316406,240 271.555176,240 Z" id="Shape"></path>
            </g>
        </g>
    </g>
</svg>