<?xml version="1.0" encoding="UTF-8"?>
<svg width="300px" height="300px" viewBox="0 0 300 300" version="1.1" xmlns="http://www.w3.org/2000/svg" xmlns:xlink="http://www.w3.org/1999/xlink">
    <!-- Generator: Sketch 51.2 (57519) - http://www.bohemiancoding.com/sketch -->
    <title>icon</title>
    <desc>Created with Sketch.</desc>
    <defs></defs>
    <g id="icon" stroke="none" stroke-width="1" fill="none" fill-rule="evenodd">
        <g id="Search-hETA" transform="translate(8.000000, 0.000000)" fill="#333333" fill-rule="nonzero">
            <path d="M196.933738,195.12092 C215.615675,174.434453 227.270789,146.735139 227.270789,116.231061 C227.270789,52.2424123 176.366246,0 113.635395,0 C50.9045432,0 0,52.2424123 0,116.231061 C0,180.219709 50.9045432,232.462121 113.635395,232.462121 C139.173565,232.462121 162.654382,223.872098 181.679312,209.321096 L266.177226,295.749114 C268.233974,297.852843 270.80491,298.904708 273.375848,298.904708 C275.946784,298.904708 278.688914,297.852843 280.57447,295.749114 C284.516774,291.71676 284.516774,285.055362 280.57447,280.847902 L196.933738,195.12092 Z M20.5674922,116.231061 C20.5674922,63.8129251 62.2166639,21.037296 113.635395,21.037296 C164.882931,21.037296 206.703297,63.6378205 206.703297,116.231061 C206.703297,168.824301 165.054126,211.424825 113.635395,211.424825 C62.2166639,211.424825 20.5674922,168.649196 20.5674922,116.231061 Z" id="Shape"></path>
        </g>
    </g>
</svg>